<?xml version="1.0" encoding="UTF-8"?><svg xmlns="http://www.w3.org/2000/svg" viewBox="0 0 250 250"><defs><style>.cls-1,.cls-2{fill:#6fbe44;}.cls-2{font-family:FeltTipSenior, 'Felt Tip Senior';font-size:150px;}</style></defs><g id="Layer_2"><path class="cls-1" d="m125,18.93l75.01,31.07,31.07,75.01-31.07,75.01-75.01,31.07-75.01-31.07-31.07-75.01,31.07-75.01,75.01-31.07m0-2.16l-76.54,31.7-31.7,76.54,31.7,76.54,76.54,31.7,76.54-31.7,31.7-76.54-31.7-76.54-76.54-31.7h0Z"/><path class="cls-1" d="m125,19.72l105.28,105.28-105.28,105.28L19.72,125,125,19.72m0-2.72L17,125l108,108,108-108L125,17h0Z"/></g><g id="Layer_3"><text class="cls-2" transform="translate(115.93 174.06)"><tspan x="0" y="0">H</tspan></text><text class="cls-2" transform="translate(60.43 132.56)"><tspan x="0" y="0">A</tspan></text></g></svg>